<svg width="973" height="189" viewBox="0 0 973 189" fill="none" xmlns="http://www.w3.org/2000/svg">
<path d="M31 134L61.9267 103.196L81 84L61.9267 64.9267L61.2244 64.2244L0 3V53.0927L30.9633 84.056L0 115.019V165.122V188.78H31V134.156V134Z" fill="#000033"/>
<path d="M126.963 188.78L96.0625 158.026L96 33.9629L126.922 3.0625L126.963 3V188.78Z" fill="#000033"/>
<path d="M66.9629 188.78L36 158V34L66.9219 3.0625L66.9629 3V188.78ZM38 34.791L38.0615 157.193L64.9629 183.967V7.84766L38 34.791Z" fill="#000033"/>
<path d="M97 157.54L68.415 128.998L97 100.414V157.54Z" stroke="#000033" stroke-width="2"/>
<path d="M219.707 71.8106V3.65137H238.873C246.044 3.65137 251.553 5.28119 255.4 8.54084C259.311 11.8005 261.267 16.527 261.267 22.7203C261.267 28.8484 259.311 33.5749 255.4 36.8998C251.553 40.2246 246.044 41.887 238.873 41.887H226.063V71.8106H219.707ZM226.063 36.2152H238.189C243.404 36.2152 247.479 35.107 250.412 32.8904C253.346 30.6087 254.813 27.2186 254.813 22.7203C254.813 18.3524 253.379 15.0601 250.51 12.8436C247.642 10.5618 243.535 9.42095 238.189 9.42095H226.063V36.2152Z" fill="#000033"/>
<path d="M270.435 71.8106L295.762 3.65137H301.14L326.37 71.8106H319.427L298.5 12.5502L277.573 71.8106H270.435ZM282.952 54.3063L285.005 48.5367H311.897L314.049 54.3063H282.952Z" fill="#000033"/>
<path d="M359.79 72.3002C351.967 72.3002 345.969 70.1162 341.797 65.7483C337.624 61.3804 335.538 55.0241 335.538 46.6794V3.16309H341.894V45.9949C341.894 50.428 342.514 54.1766 343.752 57.2406C344.991 60.2395 346.914 62.5213 349.522 64.0859C352.195 65.5853 355.618 66.3351 359.79 66.3351C363.897 66.3351 367.287 65.5527 369.96 63.9881C372.633 62.3583 374.621 60.0439 375.925 57.0451C377.229 53.981 377.881 50.2324 377.881 45.7993V3.16309H384.139V46.1904C384.139 54.6655 382.053 61.1522 377.881 65.6505C373.709 70.0836 367.678 72.3002 359.79 72.3002Z" fill="#000033"/>
<path d="M393.307 71.8106V3.65137H399.663V66.041H431.054V71.8106H393.307Z" fill="#000033"/>
<path d="M471.123 72.7888C464.995 72.7888 459.584 71.3546 454.89 68.4861C450.261 65.5524 446.643 61.4779 444.035 56.2624C441.493 50.9818 440.222 44.8211 440.222 37.7802C440.222 30.7394 441.493 24.5787 444.035 19.298C446.643 14.0174 450.261 9.94284 454.89 7.07435C459.584 4.14067 464.995 2.67383 471.123 2.67383C477.447 2.67383 482.923 4.14067 487.552 7.07435C492.246 9.94284 495.864 14.0174 498.406 19.298C501.014 24.5787 502.318 30.7394 502.318 37.7802C502.318 44.8211 501.014 50.9818 498.406 56.2624C495.799 61.4779 492.148 65.5524 487.454 68.4861C482.825 71.3546 477.382 72.7888 471.123 72.7888ZM471.123 66.6281C476.208 66.6281 480.576 65.4546 484.227 63.1077C487.943 60.7608 490.811 57.4359 492.832 53.1332C494.853 48.7652 495.864 43.6476 495.864 37.7802C495.864 31.8477 494.853 26.73 492.832 22.4273C490.811 18.0594 487.943 14.7019 484.227 12.355C480.576 10.008 476.208 8.83456 471.123 8.83456C466.168 8.83456 461.833 10.008 458.117 12.355C454.466 14.7019 451.63 18.0268 449.609 22.3295C447.588 26.6322 446.578 31.7825 446.578 37.7802C446.578 43.7128 447.588 48.8304 449.609 53.1332C451.63 57.4359 454.466 60.7608 458.117 63.1077C461.833 65.4546 466.168 66.6281 471.123 66.6281Z" fill="#000033"/>
<path d="M219.707 184.831V116.672H229.29L252.564 172.999H251.293L274.664 116.672H284.052V184.831H277.696V124.006L278.087 124.104L255.106 179.159H248.75L225.672 124.104L226.063 124.006V184.831H219.707Z" fill="#000033"/>
<path d="M293.22 184.831V116.672H337.812V122.441H299.576V147.28H333.9V153.05H299.576V179.062H337.812V184.831H293.22Z" fill="#000033"/>
<path d="M346.979 184.831V116.672H353.923L390.496 176.617H389.225V116.672H395.581V184.831H388.442L352.065 124.788H353.336V184.831H346.979Z" fill="#000033"/>
<path d="M404.749 184.831V116.672H423.133C434.151 116.672 442.691 119.703 448.754 125.766C454.882 131.764 457.946 140.272 457.946 151.289C457.946 162.111 454.915 170.423 448.852 176.226C442.854 181.963 434.248 184.831 423.035 184.831H404.749ZM411.105 178.964H422.448C428.642 178.964 433.89 177.986 438.193 176.03C442.495 174.074 445.755 171.043 447.971 166.936C450.253 162.828 451.394 157.548 451.394 151.094C451.394 144.64 450.253 139.294 447.971 135.056C445.755 130.819 442.528 127.689 438.29 125.669C434.053 123.582 428.968 122.539 423.035 122.539H411.105V178.964Z" fill="#000033"/>
<path d="M467.114 184.831V116.672H511.706V122.441H473.47V147.28H507.794V153.05H473.47V179.062H511.706V184.831H467.114Z" fill="#000033"/>
<path d="M544.93 185.76C538.28 185.76 532.836 184.033 528.599 180.578C524.361 177.122 521.786 172.526 520.874 166.789L527.132 165.225C527.914 170.049 529.903 173.732 533.097 176.275C536.357 178.752 540.366 179.991 545.125 179.991C547.929 179.991 550.439 179.437 552.655 178.328C554.937 177.22 556.73 175.655 558.034 173.635C559.337 171.614 559.989 169.299 559.989 166.691C559.989 163.888 559.24 161.639 557.74 159.944C556.241 158.184 554.252 156.684 551.775 155.446C549.298 154.207 546.494 153.001 543.365 151.827C539.845 150.458 536.683 148.992 533.88 147.427C531.076 145.797 528.86 143.841 527.23 141.56C525.665 139.278 524.883 136.442 524.883 133.052C524.883 129.662 525.698 126.696 527.328 124.153C528.957 121.545 531.239 119.492 534.173 117.992C537.172 116.493 540.627 115.743 544.539 115.743C548.711 115.743 552.394 116.688 555.589 118.579C558.783 120.47 561.358 123.24 563.314 126.891L558.229 130.02C556.664 127.282 554.709 125.164 552.362 123.664C550.08 122.165 547.407 121.415 544.343 121.415C541.735 121.415 539.454 121.904 537.498 122.882C535.542 123.86 534.01 125.229 532.902 126.989C531.793 128.684 531.239 130.64 531.239 132.856C531.239 135.203 531.859 137.192 533.097 138.821C534.401 140.451 536.226 141.853 538.573 143.026C540.986 144.2 543.789 145.373 546.983 146.547C550.765 147.981 554.089 149.546 556.958 151.241C559.892 152.871 562.173 154.892 563.803 157.304C565.433 159.716 566.248 162.715 566.248 166.3C566.248 170.081 565.335 173.439 563.51 176.373C561.684 179.306 559.174 181.621 555.98 183.316C552.785 184.945 549.102 185.76 544.93 185.76Z" fill="#000033"/>
<path d="M556.622 70.6524V2.49316H562.978V32.9057H598.964V2.49316H605.419V70.6524H598.964V38.8708H562.978V70.6524H556.622Z" fill="#000033"/>
<path d="M614.586 70.6524V2.49316H659.178V8.26274H620.943V33.1013H655.267V38.8708H620.943V64.8828H659.178V70.6524H614.586Z" fill="#000033"/>
<path d="M668.346 70.6524V2.49316H675.289L711.862 62.4381H710.591V2.49316H716.948V70.6524H709.809L673.431 10.6097H674.703V70.6524H668.346Z" fill="#000033"/>
<path d="M726.115 70.6524V2.49316H745.282C750.302 2.49316 754.442 3.24288 757.701 4.74232C761.026 6.24176 763.503 8.39313 765.133 11.1964C766.828 13.9997 767.676 17.3898 767.676 21.3665C767.676 26.7775 766.111 31.0803 762.982 34.2747C759.853 37.4692 755.322 39.3924 749.389 40.0443C748.476 40.1095 747.368 40.1747 746.064 40.2399C744.826 40.2399 743.62 40.2399 742.446 40.2399H732.472V70.6524H726.115ZM764.84 70.6524L746.749 39.3598L753.301 38.4797L772.174 70.6524H764.84ZM732.472 34.5681H744.597C748.053 34.5681 751.019 34.1117 753.496 33.199C755.974 32.2212 757.864 30.7869 759.168 28.8963C760.537 26.9405 761.222 24.4306 761.222 21.3665C761.222 18.3025 760.537 15.8251 759.168 13.9345C757.799 11.9787 755.876 10.5445 753.398 9.63179C750.921 8.71909 747.987 8.26274 744.597 8.26274H732.472V34.5681Z" fill="#000033"/>
<path d="M781.342 70.6524V2.49316H787.698V70.6524H781.342Z" fill="#000033"/>
<path d="M827.767 70.115C821.639 70.115 816.228 68.6808 811.534 65.8123C806.905 62.8786 803.287 58.7714 800.68 53.4908C798.137 48.2102 796.866 42.082 796.866 35.1064C796.866 28.0656 798.137 21.9048 800.68 16.6242C803.287 11.3436 806.905 7.26901 811.534 4.40052C816.228 1.46684 821.639 0 827.767 0C834.091 0 839.567 1.46684 844.196 4.40052C848.89 7.26901 852.508 11.3436 855.05 16.6242C857.658 21.9048 858.962 28.0656 858.962 35.1064C858.962 42.1472 857.658 48.308 855.05 53.5886C852.443 58.804 848.792 62.8786 844.098 65.8123C839.469 68.6808 834.026 70.115 827.767 70.115ZM857.006 73.1465L831.288 47.9168L835.101 43.9075L860.918 69.3327L857.006 73.1465ZM827.767 63.9543C832.852 63.9543 837.22 62.7808 840.871 60.4339C844.587 58.0869 847.455 54.7621 849.476 50.4593C851.497 46.0914 852.508 40.9738 852.508 35.1064C852.508 29.1738 851.497 24.0562 849.476 19.7535C847.455 15.3855 844.587 12.0281 840.871 9.68115C837.22 7.3342 832.852 6.16073 827.767 6.16073C822.813 6.16073 818.477 7.3342 814.761 9.68115C811.11 12.0281 808.274 15.3529 806.254 19.6557C804.233 23.9584 803.222 29.1087 803.222 35.1064C803.222 41.039 804.233 46.1566 806.254 50.4593C808.274 54.7621 811.11 58.0869 814.761 60.4339C818.477 62.7808 822.813 63.9543 827.767 63.9543Z" fill="#000033"/>
<path d="M894.337 71.142C886.514 71.142 880.516 68.958 876.344 64.5901C872.172 60.2222 870.085 53.8659 870.085 45.5212V2.00488H876.442V44.8367C876.442 49.2698 877.061 53.0184 878.3 56.0824C879.538 59.0813 881.462 61.3631 884.069 62.9277C886.742 64.4271 890.165 65.1769 894.337 65.1769C898.444 65.1769 901.834 64.3945 904.507 62.8299C907.18 61.2001 909.169 58.8857 910.472 55.8869C911.776 52.8228 912.428 49.0742 912.428 44.6411V2.00488H918.687V45.0322C918.687 53.5073 916.601 59.994 912.428 64.4923C908.256 68.9254 902.226 71.142 894.337 71.142Z" fill="#000033"/>
<path d="M927.854 70.6524V2.49316H972.446V8.26274H934.211V33.1013H968.535V38.8708H934.211V64.8828H972.446V70.6524H927.854Z" fill="#000033"/>
<path d="M625.198 143.076C623.529 143.076 622.06 142.665 620.79 141.843C619.545 140.997 618.574 139.851 617.876 138.407C617.179 136.963 616.83 135.344 616.83 133.551C616.83 131.609 617.204 129.928 617.951 128.508C618.698 127.089 619.707 125.993 620.977 125.221C622.247 124.449 623.654 124.063 625.198 124.063C626.368 124.063 627.414 124.3 628.335 124.773C629.257 125.221 630.029 125.844 630.651 126.641C631.299 127.412 631.747 128.284 631.996 129.255L631.099 129.853V116.742H634.237V142.777H631.099V137.286L632.145 137.623C631.822 138.693 631.336 139.64 630.689 140.461C630.041 141.283 629.257 141.931 628.335 142.404C627.414 142.852 626.368 143.076 625.198 143.076ZM625.721 140.163C626.841 140.163 627.825 139.889 628.671 139.341C629.518 138.768 630.178 137.984 630.651 136.988C631.124 135.991 631.361 134.846 631.361 133.551C631.361 132.256 631.124 131.111 630.651 130.114C630.178 129.118 629.518 128.346 628.671 127.798C627.825 127.226 626.841 126.939 625.721 126.939C624.6 126.939 623.604 127.226 622.732 127.798C621.886 128.346 621.213 129.118 620.715 130.114C620.242 131.111 620.005 132.256 620.005 133.551C620.005 134.846 620.242 135.991 620.715 136.988C621.213 137.984 621.886 138.768 622.732 139.341C623.604 139.889 624.6 140.163 625.721 140.163ZM647.383 143.076C645.938 143.076 644.668 142.84 643.572 142.366C642.502 141.868 641.605 141.184 640.883 140.312C640.186 139.44 639.65 138.444 639.277 137.324C638.928 136.178 638.754 134.97 638.754 133.7C638.754 132.43 638.928 131.223 639.277 130.077C639.625 128.907 640.136 127.873 640.808 126.977C641.506 126.08 642.377 125.37 643.423 124.848C644.469 124.325 645.689 124.063 647.084 124.063C648.503 124.063 649.723 124.312 650.744 124.81C651.79 125.283 652.637 125.943 653.284 126.79C653.957 127.637 654.455 128.583 654.779 129.629C655.102 130.675 655.264 131.758 655.264 132.879C655.264 132.978 655.252 133.215 655.227 133.588C655.227 133.937 655.202 134.248 655.152 134.522H641.892C641.966 136.315 642.489 137.71 643.46 138.706C644.432 139.702 645.751 140.2 647.42 140.2C648.491 140.2 649.425 140.026 650.221 139.677C651.018 139.328 651.765 138.768 652.463 137.996L654.667 139.938C653.994 140.661 653.284 141.258 652.537 141.731C651.79 142.18 650.993 142.516 650.147 142.74C649.325 142.964 648.404 143.076 647.383 143.076ZM652.126 132.916C652.176 132.717 652.201 132.517 652.201 132.318C652.226 132.119 652.239 131.92 652.239 131.721C652.239 131.123 652.126 130.525 651.902 129.928C651.703 129.33 651.392 128.795 650.969 128.321C650.57 127.823 650.047 127.437 649.4 127.163C648.777 126.865 648.03 126.715 647.158 126.715C646.088 126.715 645.166 126.964 644.394 127.462C643.622 127.96 643.025 128.62 642.601 129.442C642.178 130.264 641.929 131.173 641.854 132.169H653.172L652.126 132.916ZM665.874 143.076C664.629 143.076 663.508 142.889 662.512 142.516C661.516 142.142 660.657 141.644 659.935 141.022C659.238 140.399 658.677 139.739 658.254 139.042L660.458 137.174C660.931 138.121 661.628 138.905 662.55 139.528C663.496 140.125 664.617 140.424 665.911 140.424C667.082 140.424 668.016 140.175 668.713 139.677C669.41 139.179 669.759 138.507 669.759 137.66C669.759 136.963 669.547 136.415 669.124 136.016C668.701 135.618 668.14 135.294 667.443 135.045C666.746 134.796 665.986 134.572 665.164 134.373C664.467 134.198 663.757 133.987 663.035 133.738C662.338 133.489 661.703 133.177 661.13 132.804C660.557 132.43 660.097 131.945 659.748 131.347C659.399 130.749 659.225 130.015 659.225 129.143C659.225 127.624 659.81 126.404 660.981 125.483C662.176 124.536 663.733 124.063 665.65 124.063C667.045 124.063 668.315 124.362 669.46 124.96C670.631 125.532 671.539 126.404 672.187 127.574L670.17 129.068C669.672 128.197 669.012 127.574 668.19 127.201C667.393 126.802 666.509 126.603 665.538 126.603C664.567 126.603 663.757 126.802 663.11 127.201C662.462 127.599 662.139 128.147 662.139 128.844C662.139 129.367 662.288 129.791 662.587 130.114C662.886 130.438 663.322 130.712 663.894 130.936C664.492 131.16 665.214 131.372 666.061 131.571C666.833 131.746 667.617 131.957 668.414 132.206C669.211 132.455 669.946 132.779 670.618 133.177C671.29 133.576 671.826 134.111 672.224 134.784C672.648 135.431 672.859 136.278 672.859 137.324C672.859 138.469 672.573 139.478 672 140.349C671.427 141.221 670.618 141.893 669.572 142.366C668.526 142.84 667.294 143.076 665.874 143.076ZM685.101 143.076C683.657 143.076 682.387 142.84 681.291 142.366C680.22 141.868 679.324 141.184 678.602 140.312C677.904 139.44 677.369 138.444 676.995 137.324C676.647 136.178 676.472 134.97 676.472 133.7C676.472 132.43 676.647 131.223 676.995 130.077C677.344 128.907 677.854 127.873 678.527 126.977C679.224 126.08 680.096 125.37 681.142 124.848C682.188 124.325 683.408 124.063 684.802 124.063C686.222 124.063 687.442 124.312 688.463 124.81C689.509 125.283 690.356 125.943 691.003 126.79C691.675 127.637 692.173 128.583 692.497 129.629C692.821 130.675 692.983 131.758 692.983 132.879C692.983 132.978 692.97 133.215 692.945 133.588C692.945 133.937 692.921 134.248 692.871 134.522H679.61C679.685 136.315 680.208 137.71 681.179 138.706C682.15 139.702 683.47 140.2 685.138 140.2C686.209 140.2 687.143 140.026 687.94 139.677C688.737 139.328 689.484 138.768 690.181 137.996L692.385 139.938C691.713 140.661 691.003 141.258 690.256 141.731C689.509 142.18 688.712 142.516 687.865 142.74C687.044 142.964 686.122 143.076 685.101 143.076ZM689.845 132.916C689.895 132.717 689.92 132.517 689.92 132.318C689.945 132.119 689.957 131.92 689.957 131.721C689.957 131.123 689.845 130.525 689.621 129.928C689.422 129.33 689.11 128.795 688.687 128.321C688.289 127.823 687.766 127.437 687.118 127.163C686.496 126.865 685.749 126.715 684.877 126.715C683.806 126.715 682.885 126.964 682.113 127.462C681.341 127.96 680.743 128.62 680.32 129.442C679.896 130.264 679.647 131.173 679.573 132.169H690.891L689.845 132.916ZM697.504 142.777V124.362H700.679V128.284L699.932 128.546C700.281 127.599 700.754 126.802 701.351 126.155C701.949 125.483 702.671 124.972 703.518 124.623C704.365 124.25 705.299 124.063 706.32 124.063C708.337 124.063 709.918 124.661 711.063 125.856C712.209 127.026 712.782 128.77 712.782 131.086V142.777H709.607V132.244C709.607 130.376 709.258 129.006 708.561 128.135C707.888 127.238 706.855 126.79 705.46 126.79C704.439 126.79 703.568 127.026 702.846 127.5C702.148 127.973 701.613 128.72 701.239 129.741C700.866 130.737 700.679 132.019 700.679 133.588V142.777H697.504ZM723.173 142.777L715.627 124.362H719.101L724.48 138.706L729.897 124.362H733.333L725.825 142.777H723.173ZM744.532 143.076C742.814 143.076 741.27 142.678 739.9 141.881C738.556 141.059 737.497 139.926 736.725 138.482C735.953 137.037 735.567 135.394 735.567 133.551C735.567 131.708 735.941 130.077 736.688 128.658C737.46 127.213 738.518 126.093 739.863 125.296C741.233 124.474 742.789 124.063 744.532 124.063C746.275 124.063 747.807 124.474 749.127 125.296C750.471 126.093 751.53 127.213 752.302 128.658C753.074 130.077 753.46 131.708 753.46 133.551C753.46 135.394 753.074 137.037 752.302 138.482C751.53 139.901 750.471 141.022 749.127 141.843C747.782 142.665 746.25 143.076 744.532 143.076ZM744.532 140.275C745.703 140.275 746.711 140.001 747.558 139.453C748.429 138.88 749.102 138.096 749.575 137.1C750.048 136.079 750.285 134.896 750.285 133.551C750.285 132.181 750.048 130.998 749.575 130.002C749.102 128.981 748.429 128.197 747.558 127.649C746.711 127.101 745.703 126.827 744.532 126.827C743.337 126.827 742.303 127.114 741.432 127.686C740.56 128.234 739.888 129.006 739.415 130.002C738.942 130.998 738.705 132.181 738.705 133.551C738.705 134.896 738.942 136.079 739.415 137.1C739.888 138.096 740.56 138.88 741.432 139.453C742.303 140.001 743.337 140.275 744.532 140.275ZM761.683 143.076C760.563 143.076 759.654 142.728 758.956 142.03C758.259 141.333 757.91 140.225 757.91 138.706V116.742H761.048V138.108C761.048 138.83 761.198 139.353 761.496 139.677C761.795 140.001 762.194 140.163 762.692 140.163C762.916 140.163 763.165 140.138 763.439 140.088C763.713 140.038 763.999 139.963 764.298 139.864V142.553C763.875 142.728 763.426 142.852 762.953 142.927C762.48 143.026 762.057 143.076 761.683 143.076ZM773.586 142.777L766.04 124.362H769.514L774.893 138.706L780.31 124.362H783.746L776.238 142.777H773.586ZM787.313 142.777V124.362H790.451V142.777H787.313ZM787.014 121.037V116.742H790.749V121.037H787.014ZM795.777 142.777V124.362H798.952V129.106H798.317C798.541 128.234 798.84 127.487 799.213 126.865C799.612 126.217 800.072 125.694 800.595 125.296C801.118 124.872 801.679 124.561 802.276 124.362C802.899 124.163 803.546 124.063 804.219 124.063C805.339 124.063 806.323 124.275 807.17 124.698C808.016 125.121 808.714 125.769 809.261 126.641C809.809 127.487 810.183 128.57 810.382 129.89L808.589 130.002C808.963 128.732 809.436 127.662 810.008 126.79C810.581 125.893 811.291 125.221 812.138 124.773C813.009 124.3 814.043 124.063 815.238 124.063C816.757 124.063 817.977 124.412 818.899 125.109C819.82 125.781 820.492 126.69 820.916 127.836C821.339 128.956 821.551 130.202 821.551 131.571V142.777H818.413V132.318C818.413 131.173 818.276 130.189 818.002 129.367C817.753 128.546 817.342 127.911 816.769 127.462C816.222 127.014 815.475 126.79 814.528 126.79C813.632 126.79 812.86 127.014 812.212 127.462C811.59 127.911 811.104 128.595 810.756 129.517C810.432 130.413 810.27 131.534 810.27 132.879V142.777H807.095V132.057C807.095 130.289 806.771 128.969 806.124 128.097C805.476 127.226 804.53 126.79 803.285 126.79C802.388 126.79 801.616 127.026 800.969 127.5C800.321 127.948 799.823 128.62 799.475 129.517C799.126 130.413 798.952 131.534 798.952 132.879V142.777H795.777ZM834.48 143.076C833.036 143.076 831.765 142.84 830.67 142.366C829.599 141.868 828.702 141.184 827.98 140.312C827.283 139.44 826.748 138.444 826.374 137.324C826.025 136.178 825.851 134.97 825.851 133.7C825.851 132.43 826.025 131.223 826.374 130.077C826.723 128.907 827.233 127.873 827.906 126.977C828.603 126.08 829.474 125.37 830.52 124.848C831.566 124.325 832.786 124.063 834.181 124.063C835.6 124.063 836.821 124.312 837.842 124.81C838.888 125.283 839.734 125.943 840.382 126.79C841.054 127.637 841.552 128.583 841.876 129.629C842.2 130.675 842.362 131.758 842.362 132.879C842.362 132.978 842.349 133.215 842.324 133.588C842.324 133.937 842.299 134.248 842.249 134.522H828.989C829.064 136.315 829.586 137.71 830.558 138.706C831.529 139.702 832.849 140.2 834.517 140.2C835.588 140.2 836.522 140.026 837.319 139.677C838.116 139.328 838.863 138.768 839.56 137.996L841.764 139.938C841.091 140.661 840.382 141.258 839.635 141.731C838.888 142.18 838.091 142.516 837.244 142.74C836.422 142.964 835.501 143.076 834.48 143.076ZM839.224 132.916C839.274 132.717 839.298 132.517 839.298 132.318C839.323 132.119 839.336 131.92 839.336 131.721C839.336 131.123 839.224 130.525 839 129.928C838.8 129.33 838.489 128.795 838.066 128.321C837.667 127.823 837.144 127.437 836.497 127.163C835.874 126.865 835.127 126.715 834.256 126.715C833.185 126.715 832.264 126.964 831.492 127.462C830.72 127.96 830.122 128.62 829.699 129.442C829.275 130.264 829.026 131.173 828.951 132.169H840.27L839.224 132.916ZM846.883 142.777V124.362H850.058V128.284L849.311 128.546C849.659 127.599 850.133 126.802 850.73 126.155C851.328 125.483 852.05 124.972 852.897 124.623C853.743 124.25 854.677 124.063 855.698 124.063C857.715 124.063 859.297 124.661 860.442 125.856C861.588 127.026 862.16 128.77 862.16 131.086V142.777H858.985V132.244C858.985 130.376 858.637 129.006 857.939 128.135C857.267 127.238 856.234 126.79 854.839 126.79C853.818 126.79 852.947 127.026 852.224 127.5C851.527 127.973 850.992 128.72 850.618 129.741C850.245 130.737 850.058 132.019 850.058 133.588V142.777H846.883ZM873.437 143.076C872.565 143.076 871.768 142.914 871.046 142.591C870.349 142.242 869.801 141.694 869.402 140.947C869.004 140.2 868.805 139.241 868.805 138.071V119.431L872.017 117.638V137.249C872.017 138.27 872.179 139.067 872.503 139.64C872.827 140.187 873.412 140.461 874.258 140.461C874.507 140.461 874.806 140.437 875.155 140.387C875.504 140.312 875.877 140.225 876.276 140.125V142.591C875.802 142.765 875.317 142.889 874.819 142.964C874.346 143.039 873.885 143.076 873.437 143.076ZM864.995 126.827V124.362H876.276V126.827H864.995ZM887.965 143.076C886.247 143.076 884.703 142.678 883.333 141.881C881.988 141.059 880.93 139.926 880.158 138.482C879.386 137.037 879 135.394 879 133.551C879 131.708 879.374 130.077 880.121 128.658C880.893 127.213 881.951 126.093 883.296 125.296C884.665 124.474 886.222 124.063 887.965 124.063C889.708 124.063 891.24 124.474 892.559 125.296C893.904 126.093 894.963 127.213 895.735 128.658C896.507 130.077 896.893 131.708 896.893 133.551C896.893 135.394 896.507 137.037 895.735 138.482C894.963 139.901 893.904 141.022 892.559 141.843C891.215 142.665 889.683 143.076 887.965 143.076ZM887.965 140.275C889.135 140.275 890.144 140.001 890.991 139.453C891.862 138.88 892.535 138.096 893.008 137.1C893.481 136.079 893.717 134.896 893.717 133.551C893.717 132.181 893.481 130.998 893.008 130.002C892.535 128.981 891.862 128.197 890.991 127.649C890.144 127.101 889.135 126.827 887.965 126.827C886.77 126.827 885.736 127.114 884.865 127.686C883.993 128.234 883.321 129.006 882.847 130.002C882.374 130.998 882.138 132.181 882.138 133.551C882.138 134.896 882.374 136.079 882.847 137.1C883.321 138.096 883.993 138.88 884.865 139.453C885.736 140.001 886.77 140.275 887.965 140.275ZM625.198 180.076C623.529 180.076 622.06 179.665 620.79 178.843C619.545 177.997 618.574 176.851 617.876 175.407C617.179 173.963 616.83 172.344 616.83 170.551C616.83 168.609 617.204 166.928 617.951 165.508C618.698 164.089 619.707 162.993 620.977 162.221C622.247 161.449 623.654 161.063 625.198 161.063C626.368 161.063 627.414 161.3 628.335 161.773C629.257 162.221 630.029 162.844 630.651 163.641C631.299 164.412 631.747 165.284 631.996 166.255L631.099 166.853V153.742H634.237V179.777H631.099V174.286L632.145 174.623C631.822 175.693 631.336 176.64 630.689 177.461C630.041 178.283 629.257 178.931 628.335 179.404C627.414 179.852 626.368 180.076 625.198 180.076ZM625.721 177.163C626.841 177.163 627.825 176.889 628.671 176.341C629.518 175.768 630.178 174.984 630.651 173.988C631.124 172.991 631.361 171.846 631.361 170.551C631.361 169.256 631.124 168.111 630.651 167.114C630.178 166.118 629.518 165.346 628.671 164.798C627.825 164.226 626.841 163.939 625.721 163.939C624.6 163.939 623.604 164.226 622.732 164.798C621.886 165.346 621.213 166.118 620.715 167.114C620.242 168.111 620.005 169.256 620.005 170.551C620.005 171.846 620.242 172.991 620.715 173.988C621.213 174.984 621.886 175.768 622.732 176.341C623.604 176.889 624.6 177.163 625.721 177.163ZM647.383 180.076C645.938 180.076 644.668 179.84 643.572 179.366C642.502 178.868 641.605 178.184 640.883 177.312C640.186 176.44 639.65 175.444 639.277 174.324C638.928 173.178 638.754 171.97 638.754 170.7C638.754 169.43 638.928 168.223 639.277 167.077C639.625 165.907 640.136 164.873 640.808 163.977C641.506 163.08 642.377 162.37 643.423 161.848C644.469 161.325 645.689 161.063 647.084 161.063C648.503 161.063 649.723 161.312 650.744 161.81C651.79 162.283 652.637 162.943 653.284 163.79C653.957 164.637 654.455 165.583 654.779 166.629C655.102 167.675 655.264 168.758 655.264 169.879C655.264 169.978 655.252 170.215 655.227 170.588C655.227 170.937 655.202 171.248 655.152 171.522H641.892C641.966 173.315 642.489 174.71 643.46 175.706C644.432 176.702 645.751 177.2 647.42 177.2C648.491 177.2 649.425 177.026 650.221 176.677C651.018 176.328 651.765 175.768 652.463 174.996L654.667 176.938C653.994 177.661 653.284 178.258 652.537 178.731C651.79 179.18 650.993 179.516 650.147 179.74C649.325 179.964 648.404 180.076 647.383 180.076ZM652.126 169.916C652.176 169.717 652.201 169.517 652.201 169.318C652.226 169.119 652.239 168.92 652.239 168.721C652.239 168.123 652.126 167.525 651.902 166.928C651.703 166.33 651.392 165.795 650.969 165.321C650.57 164.823 650.047 164.437 649.4 164.163C648.777 163.865 648.03 163.715 647.158 163.715C646.088 163.715 645.166 163.964 644.394 164.462C643.622 164.96 643.025 165.62 642.601 166.442C642.178 167.264 641.929 168.173 641.854 169.169H653.172L652.126 169.916ZM675.577 180.076C674.332 180.076 673.212 179.889 672.216 179.516C671.219 179.142 670.36 178.644 669.638 178.022C668.941 177.399 668.381 176.739 667.957 176.042L670.161 174.174C670.634 175.121 671.331 175.905 672.253 176.528C673.199 177.125 674.32 177.424 675.615 177.424C676.785 177.424 677.719 177.175 678.416 176.677C679.114 176.179 679.462 175.507 679.462 174.66C679.462 173.963 679.25 173.415 678.827 173.016C678.404 172.618 677.843 172.294 677.146 172.045C676.449 171.796 675.689 171.572 674.868 171.373C674.17 171.198 673.461 170.987 672.738 170.738C672.041 170.489 671.406 170.177 670.833 169.804C670.261 169.43 669.8 168.945 669.451 168.347C669.103 167.749 668.928 167.015 668.928 166.143C668.928 164.624 669.514 163.404 670.684 162.483C671.879 161.536 673.436 161.063 675.353 161.063C676.748 161.063 678.018 161.362 679.163 161.96C680.334 162.532 681.243 163.404 681.89 164.574L679.873 166.068C679.375 165.197 678.715 164.574 677.893 164.201C677.096 163.802 676.212 163.603 675.241 163.603C674.27 163.603 673.461 163.802 672.813 164.201C672.166 164.599 671.842 165.147 671.842 165.844C671.842 166.367 671.991 166.791 672.29 167.114C672.589 167.438 673.025 167.712 673.598 167.936C674.195 168.16 674.917 168.372 675.764 168.571C676.536 168.746 677.321 168.957 678.117 169.206C678.914 169.455 679.649 169.779 680.321 170.177C680.994 170.576 681.529 171.111 681.928 171.784C682.351 172.431 682.563 173.278 682.563 174.324C682.563 175.469 682.276 176.478 681.703 177.349C681.131 178.221 680.321 178.893 679.275 179.366C678.229 179.84 676.997 180.076 675.577 180.076ZM686.997 179.777V161.362H690.135V179.777H686.997ZM686.699 158.037V153.742H690.434V158.037H686.699ZM701.55 180.076C700.305 180.076 699.184 179.889 698.188 179.516C697.192 179.142 696.333 178.644 695.611 178.022C694.913 177.399 694.353 176.739 693.93 176.042L696.134 174.174C696.607 175.121 697.304 175.905 698.225 176.528C699.172 177.125 700.292 177.424 701.587 177.424C702.758 177.424 703.692 177.175 704.389 176.677C705.086 176.179 705.435 175.507 705.435 174.66C705.435 173.963 705.223 173.415 704.8 173.016C704.376 172.618 703.816 172.294 703.119 172.045C702.422 171.796 701.662 171.572 700.84 171.373C700.143 171.198 699.433 170.987 698.711 170.738C698.014 170.489 697.379 170.177 696.806 169.804C696.233 169.43 695.773 168.945 695.424 168.347C695.075 167.749 694.901 167.015 694.901 166.143C694.901 164.624 695.486 163.404 696.657 162.483C697.852 161.536 699.408 161.063 701.326 161.063C702.72 161.063 703.99 161.362 705.136 161.96C706.306 162.532 707.215 163.404 707.863 164.574L705.846 166.068C705.348 165.197 704.688 164.574 703.866 164.201C703.069 163.802 702.185 163.603 701.214 163.603C700.243 163.603 699.433 163.802 698.786 164.201C698.138 164.599 697.815 165.147 697.815 165.844C697.815 166.367 697.964 166.791 698.263 167.114C698.562 167.438 698.997 167.712 699.57 167.936C700.168 168.16 700.89 168.372 701.737 168.571C702.509 168.746 703.293 168.957 704.09 169.206C704.887 169.455 705.621 169.779 706.294 170.177C706.966 170.576 707.502 171.111 707.9 171.784C708.323 172.431 708.535 173.278 708.535 174.324C708.535 175.469 708.249 176.478 707.676 177.349C707.103 178.221 706.294 178.893 705.248 179.366C704.202 179.84 702.969 180.076 701.55 180.076ZM719.133 180.076C718.262 180.076 717.465 179.914 716.743 179.591C716.045 179.242 715.498 178.694 715.099 177.947C714.701 177.2 714.501 176.241 714.501 175.071V156.431L717.714 154.638V174.249C717.714 175.27 717.876 176.067 718.2 176.64C718.523 177.187 719.108 177.461 719.955 177.461C720.204 177.461 720.503 177.437 720.852 177.387C721.2 177.312 721.574 177.225 721.972 177.125V179.591C721.499 179.765 721.013 179.889 720.515 179.964C720.042 180.039 719.582 180.076 719.133 180.076ZM710.691 163.827V161.362H721.972V163.827H710.691ZM733.325 180.076C731.881 180.076 730.611 179.84 729.515 179.366C728.445 178.868 727.548 178.184 726.826 177.312C726.129 176.44 725.593 175.444 725.22 174.324C724.871 173.178 724.697 171.97 724.697 170.7C724.697 169.43 724.871 168.223 725.22 167.077C725.568 165.907 726.079 164.873 726.751 163.977C727.448 163.08 728.32 162.37 729.366 161.848C730.412 161.325 731.632 161.063 733.027 161.063C734.446 161.063 735.666 161.312 736.687 161.81C737.733 162.283 738.58 162.943 739.227 163.79C739.9 164.637 740.398 165.583 740.722 166.629C741.045 167.675 741.207 168.758 741.207 169.879C741.207 169.978 741.195 170.215 741.17 170.588C741.17 170.937 741.145 171.248 741.095 171.522H727.834C727.909 173.315 728.432 174.71 729.403 175.706C730.375 176.702 731.694 177.2 733.363 177.2C734.434 177.2 735.367 177.026 736.164 176.677C736.961 176.328 737.708 175.768 738.406 174.996L740.609 176.938C739.937 177.661 739.227 178.258 738.48 178.731C737.733 179.18 736.936 179.516 736.09 179.74C735.268 179.964 734.346 180.076 733.325 180.076ZM738.069 169.916C738.119 169.717 738.144 169.517 738.144 169.318C738.169 169.119 738.181 168.92 738.181 168.721C738.181 168.123 738.069 167.525 737.845 166.928C737.646 166.33 737.335 165.795 736.911 165.321C736.513 164.823 735.99 164.437 735.343 164.163C734.72 163.865 733.973 163.715 733.101 163.715C732.031 163.715 731.109 163.964 730.337 164.462C729.565 164.96 728.968 165.62 728.544 166.442C728.121 167.264 727.872 168.173 727.797 169.169H739.115L738.069 169.916ZM745.728 179.777V161.362H748.903V166.106H748.268C748.493 165.234 748.791 164.487 749.165 163.865C749.563 163.217 750.024 162.694 750.547 162.296C751.07 161.872 751.63 161.561 752.228 161.362C752.851 161.163 753.498 161.063 754.17 161.063C755.291 161.063 756.275 161.275 757.121 161.698C757.968 162.121 758.665 162.769 759.213 163.641C759.761 164.487 760.135 165.57 760.334 166.89L758.541 167.002C758.914 165.732 759.387 164.662 759.96 163.79C760.533 162.893 761.243 162.221 762.089 161.773C762.961 161.3 763.994 161.063 765.19 161.063C766.709 161.063 767.929 161.412 768.85 162.109C769.772 162.781 770.444 163.69 770.867 164.836C771.291 165.956 771.503 167.202 771.503 168.571V179.777H768.365V169.318C768.365 168.173 768.228 167.189 767.954 166.367C767.705 165.546 767.294 164.911 766.721 164.462C766.173 164.014 765.426 163.79 764.48 163.79C763.584 163.79 762.812 164.014 762.164 164.462C761.541 164.911 761.056 165.595 760.707 166.517C760.384 167.413 760.222 168.534 760.222 169.879V179.777H757.047V169.057C757.047 167.289 756.723 165.969 756.075 165.097C755.428 164.226 754.482 163.79 753.236 163.79C752.34 163.79 751.568 164.026 750.921 164.5C750.273 164.948 749.775 165.62 749.426 166.517C749.078 167.413 748.903 168.534 748.903 169.879V179.777H745.728ZM788.765 179.777L788.541 176.079V168.235C788.541 166.816 788.142 165.72 787.345 164.948C786.573 164.176 785.415 163.79 783.871 163.79C782.875 163.79 781.941 164.002 781.07 164.425C780.198 164.823 779.351 165.508 778.53 166.479L776.251 164.537C777.272 163.342 778.443 162.47 779.762 161.922C781.082 161.349 782.527 161.063 784.095 161.063C786.511 161.063 788.379 161.686 789.698 162.931C791.018 164.176 791.678 165.944 791.678 168.235V179.777H788.765ZM782.676 180.076C781.281 180.076 780.061 179.84 779.015 179.366C777.994 178.868 777.197 178.184 776.625 177.312C776.077 176.44 775.803 175.432 775.803 174.286C775.803 173.265 776.002 172.406 776.401 171.709C776.824 170.987 777.359 170.426 778.007 170.028C778.654 169.605 779.389 169.318 780.211 169.169C781.057 168.995 781.941 168.907 782.863 168.907H788.839V171.298H783.311C782.763 171.298 782.19 171.348 781.593 171.447C780.995 171.547 780.472 171.759 780.024 172.082C779.7 172.331 779.439 172.643 779.239 173.016C779.065 173.39 778.978 173.826 778.978 174.324C778.978 175.295 779.339 176.067 780.061 176.64C780.783 177.212 781.755 177.499 782.975 177.499C783.996 177.499 784.917 177.262 785.739 176.789C786.586 176.316 787.258 175.668 787.756 174.847C788.279 174 788.541 173.054 788.541 172.008L789.848 173.352C789.698 174.672 789.3 175.843 788.653 176.864C788.005 177.885 787.171 178.682 786.15 179.254C785.154 179.802 783.996 180.076 782.676 180.076ZM802.923 180.076C801.678 180.076 800.557 179.889 799.561 179.516C798.565 179.142 797.706 178.644 796.984 178.022C796.287 177.399 795.726 176.739 795.303 176.042L797.507 174.174C797.98 175.121 798.677 175.905 799.599 176.528C800.545 177.125 801.666 177.424 802.961 177.424C804.131 177.424 805.065 177.175 805.762 176.677C806.459 176.179 806.808 175.507 806.808 174.66C806.808 173.963 806.596 173.415 806.173 173.016C805.75 172.618 805.189 172.294 804.492 172.045C803.795 171.796 803.035 171.572 802.213 171.373C801.516 171.198 800.806 170.987 800.084 170.738C799.387 170.489 798.752 170.177 798.179 169.804C797.606 169.43 797.146 168.945 796.797 168.347C796.449 167.749 796.274 167.015 796.274 166.143C796.274 164.624 796.859 163.404 798.03 162.483C799.225 161.536 800.782 161.063 802.699 161.063C804.094 161.063 805.364 161.362 806.509 161.96C807.68 162.532 808.589 163.404 809.236 164.574L807.219 166.068C806.721 165.197 806.061 164.574 805.239 164.201C804.442 163.802 803.558 163.603 802.587 163.603C801.616 163.603 800.806 163.802 800.159 164.201C799.512 164.599 799.188 165.147 799.188 165.844C799.188 166.367 799.337 166.791 799.636 167.114C799.935 167.438 800.371 167.712 800.943 167.936C801.541 168.16 802.263 168.372 803.11 168.571C803.882 168.746 804.666 168.957 805.463 169.206C806.26 169.455 806.995 169.779 807.667 170.177C808.339 170.576 808.875 171.111 809.273 171.784C809.697 172.431 809.908 173.278 809.908 174.324C809.908 175.469 809.622 176.478 809.049 177.349C808.476 178.221 807.667 178.893 806.621 179.366C805.575 179.84 804.343 180.076 802.923 180.076Z" fill="#000033"/>
</svg>
